# ProBuilder 5.2.0
# https://unity3d.com/unity/features/worldbuilding/probuilder
# 27/1/2024 2:40:14 μ.μ.

mtllib ./SpellInstantBounds.mtl
o SpellInstantBounds

g SpellInstantBounds
v -1.5 -2 1.192093E-07
v -1.5 2 1.192093E-07
v -0.7499998 -2 1.299038
v -0.7499998 2 1.299038
v -1.143342 -2 19.1874
v -1.143342 2 19.1874
v 1.143342 -2 19.1874
v 1.143342 2 19.1874
v 0.7500002 -2 1.299038
v 0.7500002 2 1.299038
v 1.5 -2 0
v 1.5 2 0
v 0.75 -2 -1.299038
v 0.75 2 -1.299038
v -0.7499998 -2 -1.299038
v -0.7499998 2 -1.299038
v 1.192093E-07 -2 1.192093E-07
v 1.192093E-07 2 1.192093E-07
v -4.612534 -2 17.09754
v -4.612534 2 17.09754
v 4.612534 -2 17.09754
v 4.612534 2 17.09754

vt -0.7499998 -2
vt -0.7499998 2
vt 0.7500002 -2
vt 0.7500002 2
vt -0.7500002 -2
vt -0.7500002 2
vt 0.7499998 -2
vt 0.7499998 2
vt -1.5 1.192093E-07
vt 1.192093E-07 1.192093E-07
vt -0.7499998 1.299038
vt 1.5 1.192093E-07
vt 0.7499998 1.299038
vt 0.7500002 1.299038
vt -0.7500002 1.299038
vt 1.5 0
vt -1.5 0
vt 0.75 -1.299038
vt -0.75 -1.299038
vt -0.7499998 -1.299038
vt 0.7499998 -1.299038
vt 1.439991 -2
vt 1.439991 2
vt 17.70382 -2
vt 17.70382 2
vt 4.612534 17.09754
vt -4.612534 17.09754
vt -1.439991 2
vt -1.439991 -2
vt -17.70382 2
vt -17.70382 -2
vt 4.871476 -2
vt 4.871476 2
vt 8.921513 -2
vt 8.921513 2
vt 1.143342 19.1874
vt -1.143342 19.1874
vt -4.871476 2
vt -4.871476 -2
vt -8.921513 2
vt -8.921513 -2

vn -1 0 0
vn -0.8660254 0 0.5
vn 0 0 1
vn 0.8660255 0 0.4999999
vn 1 0 -6.882551E-08
vn 0.5000001 0 -0.8660254
vn -0.5 0 -0.8660254
vn 0 -1 0
vn 0 1 0
vn -0.9713894 0 -0.2374924
vn 0.9713894 0 -0.2374923
vn -0.5160094 0 0.8565829
vn 0.5160094 0 0.8565829

usemtl Lit
f 1/9/8 17/10/8 3/11/8
f 3/11/8 17/10/8 9/14/8
f 9/14/8 17/10/8 11/16/8
f 11/16/8 17/10/8 13/18/8
f 13/18/8 17/10/8 15/20/8
f 15/20/8 17/10/8 1/9/8
f 4/13/9 18/10/9 2/12/9
f 10/15/9 18/10/9 4/13/9
f 12/17/9 18/10/9 10/15/9
f 14/19/9 18/10/9 12/17/9
f 16/21/9 18/10/9 14/19/9
f 2/12/9 18/10/9 16/21/9
f 4/4/2 2/2/1 1/1/1
f 1/1/1 3/3/2 4/4/2
f 8/4/3 6/2/3 5/1/3
f 5/1/3 7/3/3 8/4/3
f 12/8/5 10/6/4 9/5/4
f 9/5/4 11/7/5 12/8/5
f 14/4/6 12/6/5 11/5/5
f 11/5/5 13/3/6 14/4/6
f 16/8/7 14/6/6 13/5/6
f 13/5/6 15/7/7 16/8/7
f 2/4/1 16/6/7 15/5/7
f 15/5/7 1/3/1 2/4/1
f 20/25/10 4/23/10 3/22/10
f 3/22/10 19/24/10 20/25/10
f 19/27/8 3/11/8 9/14/8
f 9/14/8 21/26/8 19/27/8
f 22/27/9 10/15/9 4/13/9
f 4/13/9 20/26/9 22/27/9
f 21/31/11 9/29/11 10/28/11
f 10/28/11 22/30/11 21/31/11
f 6/35/12 20/33/12 19/32/12
f 19/32/12 5/34/12 6/35/12
f 5/37/8 19/27/8 21/26/8
f 21/26/8 7/36/8 5/37/8
f 8/37/9 22/27/9 20/26/9
f 20/26/9 6/36/9 8/37/9
f 7/41/13 21/39/13 22/38/13
f 22/38/13 8/40/13 7/41/13

